<?xml version="1.0" encoding="UTF-8"?> <svg xmlns="http://www.w3.org/2000/svg" width="282" height="64" viewBox="0 0 282 64" fill="none"><path d="M27.0305 63.3006H37.3645V0.685304H22.1733L18.9593 26.8287L15.9614 0.685304H0.842285V63.3006H9.21617V26.1411L13.1797 63.2862H23.0525L27.0161 26.5852V63.2862L27.0305 63.3006ZM39.6129 63.3006H59.2144V52.1269H50.0911V36.0971H58.6956V24.9235H50.0911V11.8733H59.0703V0.685304H39.6129V63.3006ZM77.7062 13.6639L77.8503 25.9692L71.7969 0.685304H61.1025V63.3006H70.1538L70.0097 45.1506L69.8656 28.734L76.5243 63.3149H86.6998V22.4739L83.1398 21.5284L84.2928 18.8783C85.6188 15.87 86.253 14.022 86.5124 12.1598H83.2263V0.685304H77.6341L77.7062 13.6496V13.6639ZM113.926 52.2129V40.6811C113.926 36.0255 112.946 33.6188 109.732 30.8398L100.752 22.875C99.484 21.8006 98.9507 20.8121 98.9507 18.8496V12.9476C98.9507 11.4292 99.5561 10.7129 100.824 10.7129H101.646C102.914 10.7129 103.52 11.4292 103.52 12.9476V20.7262H113.767V11.7873C113.767 4.00874 110.553 0.155273 104.038 0.155273H98.3454C95.7655 0.155273 93.7333 0.78558 92.1767 1.98889V8.44954C92.1767 13.5779 91.7299 14.9818 88.8041 19.3223L88.6167 19.6088V21.7146C88.6167 26.1841 89.5824 28.7769 92.8109 31.556L101.79 39.5208C103.058 40.5952 103.592 41.5836 103.592 43.5462V51.0526C103.592 52.571 102.986 53.2873 101.718 53.2873H100.752C99.484 53.2873 98.8787 52.571 98.8787 51.0526V41.3974H88.6311V52.2129C88.6311 59.9915 91.8452 63.8449 98.3598 63.8449H104.197C110.712 63.8449 113.926 60.0058 113.926 52.2129ZM132.778 11.8733H141.382V0.685304H122.3V63.3006H132.778V36.7131H141.008V25.5394H132.778V11.8733ZM142.881 63.3006H153.359V0.699629H142.881V63.3006ZM171.765 11.8733H178.121V0.685304H154.916V11.8589H161.272V63.3006H171.75V11.8733H171.765ZM195.041 63.3006H205.217V0.685304H196.166L196.238 13.6496L196.382 25.9549L190.328 0.685304H179.62V63.3006H188.671L188.527 45.1506L188.383 30.2381L195.041 63.3149V63.3006ZM207.465 63.3006H227.067V52.1269H217.943V36.0971H226.548V24.9235H217.943V11.8733H226.923V0.685304H207.465V63.3006ZM253.932 52.2129V40.6811C253.932 36.0255 252.967 33.6188 249.738 30.8398L240.759 22.875C239.491 21.8006 238.957 20.8121 238.957 18.8496V12.9476C238.957 11.4292 239.563 10.7129 240.831 10.7129H241.653C242.921 10.7129 243.526 11.4292 243.526 12.9476V20.7262H253.774V11.7873C253.774 4.00874 250.56 0.155273 244.045 0.155273H238.352C231.837 0.155273 228.623 3.99442 228.623 11.7873V21.7146C228.623 26.1841 229.589 28.7769 232.818 31.556L241.797 39.5208C243.065 40.5952 243.598 41.5836 243.598 43.5462V51.0526C243.598 52.571 242.993 53.2873 241.725 53.2873H240.745C239.476 53.2873 238.871 52.571 238.871 51.0526V41.3974H228.623V52.2129C228.623 59.9915 231.837 63.8449 238.352 63.8449H244.189C250.704 63.8449 253.918 60.0058 253.918 52.2129M266.342 18.8496V12.9476C266.342 11.4292 266.933 10.7129 268.216 10.7129H269.037C270.305 10.7129 270.911 11.4292 270.911 12.9476V20.7262H281.158V11.7873C281.158 4.00874 277.944 0.155273 271.43 0.155273H265.737C259.222 0.155273 256.008 3.99442 256.008 11.7873V21.7146C256.008 26.1841 256.974 28.7769 260.202 31.556L269.181 39.5208C270.45 40.5952 270.983 41.5836 270.983 43.5462V51.0526C270.983 52.571 270.378 53.2873 269.109 53.2873H268.144C266.875 53.2873 266.27 52.571 266.27 51.0526V41.3974H256.022V52.2129C256.022 59.9915 259.236 63.8449 265.751 63.8449H271.588C278.103 63.8449 281.317 60.0058 281.317 52.2129V40.6811C281.317 36.0255 280.351 33.6188 277.123 30.8398L268.144 22.875C266.875 21.8006 266.342 20.8121 266.342 18.8496Z" fill="#DD1A21"></path></svg> 